<?xml version="1.0" encoding="UTF-8" standalone="no"?>
<!DOCTYPE svg PUBLIC "-//W3C//DTD SVG 1.1//EN"
 "http://www.w3.org/Graphics/SVG/1.1/DTD/svg11.dtd">
<!-- Generated by graphviz version 13.1.2 (20250808.2320)
 -->
<!-- Title: fault_log_t Pages: 1 -->
<svg width="214pt" height="176pt"
 viewBox="0.00 0.00 214.00 176.00" xmlns="http://www.w3.org/2000/svg" xmlns:xlink="http://www.w3.org/1999/xlink">
<g id="graph0" class="graph" transform="scale(1 1) rotate(0) translate(4 172)">
<title>fault_log_t</title>
<!-- Node1 -->
<g id="Node000001" class="node">
<title>Node1</title>
<g id="a_Node000001"><a xlink:title="Contains all fault info to be logged to or read from the backup SRAM.">
<polygon fill="#999999" stroke="#666666" points="134.62,-20 73.62,-20 73.62,0 134.62,0 134.62,-20"/>
<text xml:space="preserve" text-anchor="middle" x="104.12" y="-6.5" font-family="Helvetica,sans-Serif" font-size="10.00">fault_log_t</text>
</a>
</g>
</g>
<!-- Node2 -->
<g id="Node000002" class="node">
<title>Node2</title>
<g id="a_Node000002"><a xlink:href="structdaq__fault__record__t.html" target="_top" xlink:title="A struct for each task&#39;s stats needed for fault detection and logging.">
<polygon fill="white" stroke="#666666" points="96.25,-94 0,-94 0,-74 96.25,-74 96.25,-94"/>
<text xml:space="preserve" text-anchor="middle" x="48.12" y="-80.5" font-family="Helvetica,sans-Serif" font-size="10.00">fault_record_t</text>
</a>
</g>
</g>
<!-- Node2&#45;&gt;Node1 -->
<g id="edge1_Node000001_Node000002" class="edge">
<title>Node2&#45;&gt;Node1</title>
<g id="a_edge1_Node000001_Node000002"><a xlink:title=" ">
<path fill="none" stroke="#9a32cd" stroke-dasharray="5,2" d="M58.55,-63.72C63.37,-55.48 69.45,-45.94 75.88,-38 81,-31.67 87.52,-25.34 93.01,-20.41"/>
<polygon fill="#9a32cd" stroke="#9a32cd" points="55.6,-61.83 53.75,-72.26 61.7,-65.26 55.6,-61.83"/>
</a>
</g>
<text xml:space="preserve" text-anchor="start" x="78.88" y="-43.5" font-family="Helvetica,sans-Serif" font-size="10.00" fill="grey">task_records</text>
</g>
<!-- Node3 -->
<g id="Node000003" class="node">
<title>Node3</title>
<g id="a_Node000003"><a xlink:href="structtask__stats__t.html" target="_top" xlink:title="A struct for task stats needed for fault detection and logging.">
<polygon fill="white" stroke="#666666" points="83.12,-168 13.12,-168 13.12,-148 83.12,-148 83.12,-168"/>
<text xml:space="preserve" text-anchor="middle" x="48.12" y="-154.5" font-family="Helvetica,sans-Serif" font-size="10.00">task_stats_t</text>
</a>
</g>
</g>
<!-- Node3&#45;&gt;Node2 -->
<g id="edge2_Node000002_Node000003" class="edge">
<title>Node3&#45;&gt;Node2</title>
<g id="a_edge2_Node000002_Node000003"><a xlink:title=" ">
<path fill="none" stroke="#9a32cd" stroke-dasharray="5,2" d="M48.12,-136.18C48.12,-122.29 48.12,-104.71 48.12,-94.19"/>
<polygon fill="#9a32cd" stroke="#9a32cd" points="44.63,-136.07 48.13,-146.07 51.63,-136.07 44.63,-136.07"/>
</a>
</g>
<text xml:space="preserve" text-anchor="start" x="51.12" y="-117.5" font-family="Helvetica,sans-Serif" font-size="10.00" fill="grey">tasks</text>
</g>
<!-- Node4 -->
<g id="Node000004" class="node">
<title>Node4</title>
<g id="a_Node000004"><a xlink:href="structdaq__timestamp__t.html" target="_top" xlink:title="Format for the DAQ system timestamp.">
<polygon fill="white" stroke="#666666" points="205.62,-94 114.62,-94 114.62,-74 205.62,-74 205.62,-94"/>
<text xml:space="preserve" text-anchor="middle" x="160.12" y="-80.5" font-family="Helvetica,sans-Serif" font-size="10.00">daq_timestamp_t</text>
</a>
</g>
</g>
<!-- Node4&#45;&gt;Node1 -->
<g id="edge3_Node000001_Node000004" class="edge">
<title>Node4&#45;&gt;Node1</title>
<g id="a_edge3_Node000001_Node000004"><a xlink:title=" ">
<path fill="none" stroke="#9a32cd" stroke-dasharray="5,2" d="M152.68,-63.08C149.03,-54.83 144.12,-45.46 138.12,-38 132.65,-31.19 125.15,-25 118.59,-20.28"/>
<polygon fill="#9a32cd" stroke="#9a32cd" points="149.41,-64.34 156.41,-72.29 155.9,-61.71 149.41,-64.34"/>
</a>
</g>
<text xml:space="preserve" text-anchor="start" x="152.03" y="-43.5" font-family="Helvetica,sans-Serif" font-size="10.00" fill="grey">timestamp</text>
</g>
</g>
</svg>
