<?xml version="1.0" encoding="UTF-8" standalone="no"?>
<!DOCTYPE svg PUBLIC "-//W3C//DTD SVG 1.1//EN"
 "http://www.w3.org/Graphics/SVG/1.1/DTD/svg11.dtd">
<!-- Generated by graphviz version 13.1.2 (20250808.2320)
 -->
<!-- Title: daq_fault_log_snapshot_t Pages: 1 -->
<svg width="214pt" height="266pt"
 viewBox="0.00 0.00 214.00 266.00" xmlns="http://www.w3.org/2000/svg" xmlns:xlink="http://www.w3.org/1999/xlink">
<g id="graph0" class="graph" transform="scale(1 1) rotate(0) translate(4 262)">
<title>daq_fault_log_snapshot_t</title>
<!-- Node1 -->
<g id="Node000001" class="node">
<title>Node1</title>
<g id="a_Node000001"><a xlink:title="A buffer type for storing the previous and current faults.">
<polygon fill="#999999" stroke="#666666" points="159.75,-20 48.5,-20 48.5,0 159.75,0 159.75,-20"/>
<text xml:space="preserve" text-anchor="middle" x="104.12" y="-6.5" font-family="Helvetica,sans-Serif" font-size="10.00">daq_fault_log_snapshot_t</text>
</a>
</g>
</g>
<!-- Node2 -->
<g id="Node000002" class="node">
<title>Node2</title>
<g id="a_Node000002"><a xlink:href="structfault__log__t.html" target="_top" xlink:title="Contains all fault info to be logged to or read from the backup SRAM.">
<polygon fill="white" stroke="#666666" points="134.62,-110 73.62,-110 73.62,-90 134.62,-90 134.62,-110"/>
<text xml:space="preserve" text-anchor="middle" x="104.12" y="-96.5" font-family="Helvetica,sans-Serif" font-size="10.00">fault_log_t</text>
</a>
</g>
</g>
<!-- Node2&#45;&gt;Node1 -->
<g id="edge1_Node000001_Node000002" class="edge">
<title>Node2&#45;&gt;Node1</title>
<g id="a_edge1_Node000001_Node000002"><a xlink:title=" ">
<path fill="none" stroke="#9a32cd" stroke-dasharray="5,2" d="M104.12,-78.09C104.12,-59.77 104.12,-34.01 104.12,-20.35"/>
<polygon fill="#9a32cd" stroke="#9a32cd" points="100.63,-78.07 104.13,-88.07 107.63,-78.07 100.63,-78.07"/>
</a>
</g>
<text xml:space="preserve" text-anchor="start" x="107.12" y="-59.5" font-family="Helvetica,sans-Serif" font-size="10.00" fill="grey">current</text>
<text xml:space="preserve" text-anchor="start" x="107.12" y="-43.5" font-family="Helvetica,sans-Serif" font-size="10.00" fill="grey">prev</text>
</g>
<!-- Node3 -->
<g id="Node000003" class="node">
<title>Node3</title>
<g id="a_Node000003"><a xlink:href="structdaq__fault__record__t.html" target="_top" xlink:title="A struct for each task&#39;s stats needed for fault detection and logging.">
<polygon fill="white" stroke="#666666" points="96.25,-184 0,-184 0,-164 96.25,-164 96.25,-184"/>
<text xml:space="preserve" text-anchor="middle" x="48.12" y="-170.5" font-family="Helvetica,sans-Serif" font-size="10.00">fault_record_t</text>
</a>
</g>
</g>
<!-- Node3&#45;&gt;Node2 -->
<g id="edge2_Node000002_Node000003" class="edge">
<title>Node3&#45;&gt;Node2</title>
<g id="a_edge2_Node000002_Node000003"><a xlink:title=" ">
<path fill="none" stroke="#9a32cd" stroke-dasharray="5,2" d="M58.55,-153.72C63.37,-145.48 69.45,-135.94 75.88,-128 81,-121.67 87.52,-115.34 93.01,-110.41"/>
<polygon fill="#9a32cd" stroke="#9a32cd" points="55.6,-151.83 53.75,-162.26 61.7,-155.26 55.6,-151.83"/>
</a>
</g>
<text xml:space="preserve" text-anchor="start" x="78.88" y="-133.5" font-family="Helvetica,sans-Serif" font-size="10.00" fill="grey">task_records</text>
</g>
<!-- Node4 -->
<g id="Node000004" class="node">
<title>Node4</title>
<g id="a_Node000004"><a xlink:href="structtask__stats__t.html" target="_top" xlink:title="A struct for task stats needed for fault detection and logging.">
<polygon fill="white" stroke="#666666" points="83.12,-258 13.12,-258 13.12,-238 83.12,-238 83.12,-258"/>
<text xml:space="preserve" text-anchor="middle" x="48.12" y="-244.5" font-family="Helvetica,sans-Serif" font-size="10.00">task_stats_t</text>
</a>
</g>
</g>
<!-- Node4&#45;&gt;Node3 -->
<g id="edge3_Node000003_Node000004" class="edge">
<title>Node4&#45;&gt;Node3</title>
<g id="a_edge3_Node000003_Node000004"><a xlink:title=" ">
<path fill="none" stroke="#9a32cd" stroke-dasharray="5,2" d="M48.12,-226.18C48.12,-212.29 48.12,-194.71 48.12,-184.19"/>
<polygon fill="#9a32cd" stroke="#9a32cd" points="44.63,-226.07 48.13,-236.07 51.63,-226.07 44.63,-226.07"/>
</a>
</g>
<text xml:space="preserve" text-anchor="start" x="51.12" y="-207.5" font-family="Helvetica,sans-Serif" font-size="10.00" fill="grey">tasks</text>
</g>
<!-- Node5 -->
<g id="Node000005" class="node">
<title>Node5</title>
<g id="a_Node000005"><a xlink:href="structdaq__timestamp__t.html" target="_top" xlink:title="Format for the DAQ system timestamp.">
<polygon fill="white" stroke="#666666" points="205.62,-184 114.62,-184 114.62,-164 205.62,-164 205.62,-184"/>
<text xml:space="preserve" text-anchor="middle" x="160.12" y="-170.5" font-family="Helvetica,sans-Serif" font-size="10.00">daq_timestamp_t</text>
</a>
</g>
</g>
<!-- Node5&#45;&gt;Node2 -->
<g id="edge4_Node000002_Node000005" class="edge">
<title>Node5&#45;&gt;Node2</title>
<g id="a_edge4_Node000002_Node000005"><a xlink:title=" ">
<path fill="none" stroke="#9a32cd" stroke-dasharray="5,2" d="M152.68,-153.08C149.03,-144.83 144.12,-135.46 138.12,-128 132.65,-121.19 125.15,-115 118.59,-110.28"/>
<polygon fill="#9a32cd" stroke="#9a32cd" points="149.41,-154.34 156.41,-162.29 155.9,-151.71 149.41,-154.34"/>
</a>
</g>
<text xml:space="preserve" text-anchor="start" x="152.03" y="-133.5" font-family="Helvetica,sans-Serif" font-size="10.00" fill="grey">timestamp</text>
</g>
</g>
</svg>
